<svg width="1024" height="1024" version="1.1" xmlns="http://www.w3.org/2000/svg" desc="Created with imagetracer.js version 1.2.6" ><path fill="rgb(0,0,0)" stroke="rgb(0,0,0)" stroke-width="1" opacity="0" d="M 0 0 L 1024 0 L 1024 1024 L 0 1024 L 0 0 Z M 492 225 L 469 243 Q 452 255 447 278 L 447 292 L 451 302 L 451 305 L 458 306 L 469 313 L 477 327 L 481 341 L 483 371 L 484 372 L 485 411 L 476 417 L 447 429 L 393 447 L 387 447 L 377 443 Q 357 430 341 413 L 327 403 L 325 403 L 318 416 L 316 426 L 316 434 L 315 435 L 315 447 L 317 455 L 328 473 Q 353 500 384 523 L 403 545 L 406 552 L 406 561 L 408 568 L 414 572 L 425 572 L 426 571 L 437 570 L 460 563 L 463 561 L 466 561 L 469 559 L 485 556 L 486 631 L 487 632 L 487 703 L 486 704 L 486 733 L 485 734 L 485 787 L 486 788 L 486 802 L 487 803 L 488 821 L 492 838 Q 494 845 500 849 Q 506 842 510 833 L 517 813 L 523 787 L 524 774 L 525 773 L 525 763 L 526 762 L 526 724 L 525 723 L 525 705 L 524 704 L 523 673 L 522 672 L 522 657 L 521 656 L 521 647 L 522 646 L 522 609 L 523 608 L 523 570 L 524 569 L 524 555 L 528 556 L 541 556 L 542 557 L 561 558 L 578 562 L 593 563 L 594 564 L 599 564 L 607 561 L 611 555 L 612 541 L 615 534 L 655 482 L 664 468 L 678 461 L 702 458 Q 706 455 708 449 L 706 437 L 698 422 L 656 375 Q 650 365 640 361 L 631 361 L 618 364 L 529 397 L 533 368 L 538 352 Q 545 334 559 324 L 562 316 L 561 303 L 551 281 L 530 253 Q 515 235 492 225 Z " /><path fill="rgb(0,0,0)" stroke="rgb(0,0,0)" stroke-width="1" opacity="0" d="M 602.5 408 L 611.5 410 L 619 415.5 Q 621.6 418.4 621 424.5 Q 616.9 445.4 607 460.5 L 562 527 L 524 526 L 525 472.5 L 526 471.5 L 528 427.5 L 529.5 426 L 568.5 414 L 602.5 408 Z " /><path fill="rgb(0,0,0)" stroke="rgb(0,0,0)" stroke-width="1" opacity="0" d="M 483.5 441 L 485 441.5 L 485 530 L 454.5 536 L 447.5 536 Q 429.3 499.2 406 467.5 L 407.5 467 L 408.5 468 L 418.5 468 L 429.5 465 L 483.5 441 Z " /><path fill="rgb(193,29,30)" stroke="rgb(193,29,30)" stroke-width="1" opacity="0.5294117647058824" d="M 491.5 225 L 501 229.5 L 499.5 229 L 491.5 226 Q 474.2 237.7 460 252.5 L 453.5 262 L 454 260.5 Q 459.1 249.6 468.5 243 L 491.5 225 Z " /><path fill="rgb(193,29,30)" stroke="rgb(193,29,30)" stroke-width="1" opacity="0.5294117647058824" d="M 502.5 230 Q 518.3 239.2 530 252.5 L 542 267.5 L 539 265.5 L 522.5 246 L 503.5 232 L 502.5 230 Z " /><path fill="rgb(193,29,30)" stroke="rgb(193,29,30)" stroke-width="1" opacity="0.5294117647058824" d="M 451.5 265 L 452 266.5 L 450.5 269 L 450 267.5 L 451.5 265 Z " /><path fill="rgb(193,29,30)" stroke="rgb(193,29,30)" stroke-width="1" opacity="0.5294117647058824" d="M 542.5 269 L 555 288.5 L 553 287.5 L 542.5 269 Z " /><path fill="rgb(193,29,30)" stroke="rgb(193,29,30)" stroke-width="1" opacity="0.5294117647058824" d="M 448.5 273 L 449 275.5 L 448 275.5 L 448.5 273 Z " /><path fill="rgb(193,29,30)" stroke="rgb(193,29,30)" stroke-width="1" opacity="0.5294117647058824" d="M 447.5 277 L 448 282.5 L 447 282.5 L 447.5 277 Z " /><path fill="rgb(193,29,30)" stroke="rgb(193,29,30)" stroke-width="1" opacity="0.5294117647058824" d="M 447.5 288 L 448 291.5 L 447 291.5 L 447.5 288 Z " /><path fill="rgb(193,29,30)" stroke="rgb(193,29,30)" stroke-width="1" opacity="0.5294117647058824" d="M 555.5 290 Q 560 296 561 305.5 L 560 305.5 L 560 302.5 L 555 291.5 L 555.5 290 Z " /><path fill="rgb(193,29,30)" stroke="rgb(193,29,30)" stroke-width="1" opacity="0.5294117647058824" d="M 448.5 293 L 451 300.5 L 450 300.5 L 448.5 293 Z " /><path fill="rgb(193,29,30)" stroke="rgb(193,29,30)" stroke-width="1" opacity="0.5294117647058824" d="M 451.5 302 L 452 304 L 454 304.5 L 451 305 L 451.5 302 Z " /><path fill="rgb(193,29,30)" stroke="rgb(193,29,30)" stroke-width="1" opacity="0.5294117647058824" d="M 458.5 306 Q 466.6 308.4 471 314.5 L 479 330.5 L 478 330.5 Q 474.9 319.6 469 313 L 458.5 307 L 458.5 306 Z " /><path fill="rgb(193,29,30)" stroke="rgb(193,29,30)" stroke-width="1" opacity="0.5294117647058824" d="M 561.5 307 L 562 315.5 L 561 315.5 L 561.5 307 Z " /><path fill="rgb(193,29,30)" stroke="rgb(193,29,30)" stroke-width="1" opacity="0.5294117647058824" d="M 560.5 317 L 561 319.5 L 559 323.5 L 548 334.5 Q 540.8 343.8 536.5 356 L 536 354.5 L 543 340.5 L 558 323.5 L 560.5 317 Z " /><path fill="rgb(193,29,30)" stroke="rgb(193,29,30)" stroke-width="1" opacity="0.5294117647058824" d="M 479.5 332 L 481 339.5 L 480 339.5 L 479.5 332 Z " /><path fill="rgb(193,29,30)" stroke="rgb(193,29,30)" stroke-width="1" opacity="0.5294117647058824" d="M 481.5 342 L 482 348.5 L 481 348.5 L 481.5 342 Z " /><path fill="rgb(193,29,30)" stroke="rgb(193,29,30)" stroke-width="1" opacity="0.5294117647058824" d="M 482.5 351 L 483 358.5 L 482 358.5 L 482.5 351 Z " /><path fill="rgb(193,29,30)" stroke="rgb(193,29,30)" stroke-width="1" opacity="0.5294117647058824" d="M 535.5 357 L 536 359.5 L 534.5 363 L 534 360.5 L 535.5 357 Z " /><path fill="rgb(193,29,30)" stroke="rgb(193,29,30)" stroke-width="1" opacity="0.5294117647058824" d="M 483.5 361 L 484 370.5 L 483 370.5 L 483.5 361 Z " /><path fill="rgb(193,29,30)" stroke="rgb(193,29,30)" stroke-width="1" opacity="0.5294117647058824" d="M 630.5 361 Q 641 359.5 645.5 364 L 656 374.5 L 661 381.5 L 695 417.5 L 704 432.5 L 703 432.5 L 693 416.5 L 645.5 365 Q 641 360.5 630.5 362 L 630.5 361 Z " /><path fill="rgb(193,29,30)" stroke="rgb(193,29,30)" stroke-width="1" opacity="0.5294117647058824" d="M 625.5 362 L 629 362.5 L 625.5 363 L 625.5 362 Z " /><path fill="rgb(193,29,30)" stroke="rgb(193,29,30)" stroke-width="1" opacity="0.5294117647058824" d="M 621.5 363 L 624 363.5 L 621.5 364 L 621.5 363 Z " /><path fill="rgb(193,29,30)" stroke="rgb(193,29,30)" stroke-width="1" opacity="0.5294117647058824" d="M 533.5 364 L 534 366.5 L 533 366.5 L 533.5 364 Z " /><path fill="rgb(193,29,30)" stroke="rgb(193,29,30)" stroke-width="1" opacity="0.5294117647058824" d="M 617.5 364 L 620 364.5 L 606.5 369 L 606.5 368 L 617.5 364 Z " /><path fill="rgb(193,29,30)" stroke="rgb(193,29,30)" stroke-width="1" opacity="0.5294117647058824" d="M 532.5 368 L 533 371.5 L 532 371.5 L 532.5 368 Z " /><path fill="rgb(193,29,30)" stroke="rgb(193,29,30)" stroke-width="1" opacity="0.5294117647058824" d="M 603.5 369 L 605 369.5 L 595.5 373 L 595.5 372 L 603.5 369 Z " /><path fill="rgb(193,29,30)" stroke="rgb(193,29,30)" stroke-width="1" opacity="0.5294117647058824" d="M 531.5 373 L 532 376.5 L 531 376.5 L 531.5 373 Z " /><path fill="rgb(193,29,30)" stroke="rgb(193,29,30)" stroke-width="1" opacity="0.5294117647058824" d="M 592.5 373 L 594 373.5 L 590.5 375 L 590.5 374 L 592.5 373 Z " /><path fill="rgb(193,29,30)" stroke="rgb(193,29,30)" stroke-width="1" opacity="0.5294117647058824" d="M 484.5 374 L 485 389.5 L 484 389.5 L 484.5 374 Z " /><path fill="rgb(193,29,30)" stroke="rgb(193,29,30)" stroke-width="1" opacity="0.5294117647058824" d="M 587.5 375 L 589 375.5 L 585.5 377 L 585.5 376 L 587.5 375 Z " /><path fill="rgb(193,29,30)" stroke="rgb(193,29,30)" stroke-width="1" opacity="0.5294117647058824" d="M 582.5 377 L 584 377.5 L 580.5 379 L 580.5 378 L 582.5 377 Z " /><path fill="rgb(193,29,30)" stroke="rgb(193,29,30)" stroke-width="1" opacity="0.5294117647058824" d="M 530.5 378 L 531 382.5 L 530 382.5 L 530.5 378 Z " /><path fill="rgb(193,29,30)" stroke="rgb(193,29,30)" stroke-width="1" opacity="0.5294117647058824" d="M 577.5 379 L 579 379.5 L 575.5 381 L 575.5 380 L 577.5 379 Z " /><path fill="rgb(193,29,30)" stroke="rgb(193,29,30)" stroke-width="1" opacity="0.5294117647058824" d="M 572.5 381 L 574 381.5 L 556.5 388 L 556.5 387 L 572.5 381 Z " /><path fill="rgb(193,29,30)" stroke="rgb(193,29,30)" stroke-width="1" opacity="0.5294117647058824" d="M 529.5 385 L 530 389.5 L 529 389.5 L 529.5 385 Z " /><path fill="rgb(193,29,30)" stroke="rgb(193,29,30)" stroke-width="1" opacity="0.5294117647058824" d="M 553.5 388 L 555 388.5 L 548.5 391 L 548.5 390 L 553.5 388 Z " /><path fill="rgb(193,29,30)" stroke="rgb(193,29,30)" stroke-width="1" opacity="0.5294117647058824" d="M 545.5 391 L 547 391.5 L 543.5 393 L 543.5 392 L 545.5 391 Z " /><path fill="rgb(193,29,30)" stroke="rgb(193,29,30)" stroke-width="1" opacity="0.5294117647058824" d="M 528.5 392 L 529 397 L 531 397.5 L 528.5 399 L 528.5 392 Z " /><path fill="rgb(193,29,30)" stroke="rgb(193,29,30)" stroke-width="1" opacity="0.5294117647058824" d="M 537.5 394 L 539 394.5 L 532.5 397 L 532.5 396 L 537.5 394 Z " /><path fill="rgb(193,29,30)" stroke="rgb(193,29,30)" stroke-width="1" opacity="0.5294117647058824" d="M 324.5 403 L 326.5 403 L 340.5 413 L 370.5 439 Q 376.4 444.6 386 446.5 L 383.5 447 L 370.5 440 L 341.5 415 L 325.5 404 Q 319.7 408.7 318.5 418 L 318 415.5 L 324.5 403 Z " /><path fill="rgb(193,29,30)" stroke="rgb(193,29,30)" stroke-width="1" opacity="0.5294117647058824" d="M 485.5 408 L 486 410.5 L 480.5 415 L 481.5 413 L 485 410.5 L 485.5 408 Z " /><path fill="rgb(193,29,30)" stroke="rgb(193,29,30)" stroke-width="1" opacity="0.5294117647058824" d="M 594.5 408 L 602 408.5 L 594.5 409 L 594.5 408 Z " /><path fill="rgb(193,29,30)" stroke="rgb(193,29,30)" stroke-width="1" opacity="0.5294117647058824" d="M 603.5 408 Q 615.6 407.9 620 415.5 L 621 419.5 L 620 419.5 Q 619.6 414 615.5 412 L 608.5 409 L 603.5 409 L 603.5 408 Z " /><path fill="rgb(193,29,30)" stroke="rgb(193,29,30)" stroke-width="1" opacity="0.5294117647058824" d="M 587.5 409 L 592 409.5 L 587.5 410 L 587.5 409 Z " /><path fill="rgb(193,29,30)" stroke="rgb(193,29,30)" stroke-width="1" opacity="0.5294117647058824" d="M 582.5 410 L 586 410.5 L 582.5 411 L 582.5 410 Z " /><path fill="rgb(193,29,30)" stroke="rgb(193,29,30)" stroke-width="1" opacity="0.5294117647058824" d="M 577.5 411 L 581 411.5 L 569.5 414 L 569.5 413 L 577.5 411 Z " /><path fill="rgb(193,29,30)" stroke="rgb(193,29,30)" stroke-width="1" opacity="0.5294117647058824" d="M 565.5 414 L 568 414.5 L 565.5 415 L 565.5 414 Z " /><path fill="rgb(193,29,30)" stroke="rgb(193,29,30)" stroke-width="1" opacity="0.5294117647058824" d="M 477.5 415 L 479 415.5 L 476.5 417 L 477.5 415 Z " /><path fill="rgb(193,29,30)" stroke="rgb(193,29,30)" stroke-width="1" opacity="0.5294117647058824" d="M 561.5 415 L 564 415.5 L 561.5 416 L 561.5 415 Z " /><path fill="rgb(193,29,30)" stroke="rgb(193,29,30)" stroke-width="1" opacity="0.5294117647058824" d="M 557.5 416 L 560 416.5 L 554.5 418 L 554.5 417 L 557.5 416 Z " /><path fill="rgb(193,29,30)" stroke="rgb(193,29,30)" stroke-width="1" opacity="0.5294117647058824" d="M 473.5 417 L 475 417.5 L 462.5 423 L 462.5 422 L 473.5 417 Z " /><path fill="rgb(193,29,30)" stroke="rgb(193,29,30)" stroke-width="1" opacity="0.5294117647058824" d="M 550.5 418 L 553 418.5 L 547.5 420 L 547.5 419 L 550.5 418 Z " /><path fill="rgb(193,29,30)" stroke="rgb(193,29,30)" stroke-width="1" opacity="0.5294117647058824" d="M 317.5 419 L 318 422.5 L 317 422.5 L 317.5 419 Z " /><path fill="rgb(193,29,30)" stroke="rgb(193,29,30)" stroke-width="1" opacity="0.5294117647058824" d="M 540.5 421 L 543 421.5 L 528.5 427 L 529.5 425 L 540.5 421 Z " /><path fill="rgb(193,29,30)" stroke="rgb(193,29,30)" stroke-width="1" opacity="0.5294117647058824" d="M 459.5 423 L 461 423.5 L 457.5 425 L 457.5 424 L 459.5 423 Z " /><path fill="rgb(193,29,30)" stroke="rgb(193,29,30)" stroke-width="1" opacity="0.5294117647058824" d="M 316.5 425 L 317 430.5 L 316 430.5 L 316.5 425 Z " /><path fill="rgb(193,29,30)" stroke="rgb(193,29,30)" stroke-width="1" opacity="0.5294117647058824" d="M 454.5 425 L 456 425.5 L 452.5 427 L 452.5 426 L 454.5 425 Z " /><path fill="rgb(193,29,30)" stroke="rgb(193,29,30)" stroke-width="1" opacity="0.5294117647058824" d="M 620.5 425 L 621 428.5 L 620 428.5 L 620.5 425 Z " /><path fill="rgb(193,29,30)" stroke="rgb(193,29,30)" stroke-width="1" opacity="0.5294117647058824" d="M 449.5 427 L 451 427.5 L 447.5 429 L 447.5 428 L 449.5 427 Z " /><path fill="rgb(193,29,30)" stroke="rgb(193,29,30)" stroke-width="1" opacity="0.5294117647058824" d="M 444.5 429 L 446 429.5 L 439.5 432 L 439.5 431 L 444.5 429 Z " /><path fill="rgb(193,29,30)" stroke="rgb(193,29,30)" stroke-width="1" opacity="0.5294117647058824" d="M 527.5 430 L 528 439.5 L 527 439.5 L 527.5 430 Z " /><path fill="rgb(193,29,30)" stroke="rgb(193,29,30)" stroke-width="1" opacity="0.5294117647058824" d="M 619.5 430 L 620 433.5 L 616.5 442 L 616 440.5 L 619.5 430 Z " /><path fill="rgb(193,29,30)" stroke="rgb(193,29,30)" stroke-width="1" opacity="0.5294117647058824" d="M 436.5 432 L 438 432.5 L 425.5 437 L 425.5 436 L 436.5 432 Z " /><path fill="rgb(193,29,30)" stroke="rgb(193,29,30)" stroke-width="1" opacity="0.5294117647058824" d="M 315.5 434 L 316 446.5 L 315 446.5 L 315.5 434 Z " /><path fill="rgb(193,29,30)" stroke="rgb(193,29,30)" stroke-width="1" opacity="0.5294117647058824" d="M 704.5 434 L 706 438.5 L 705 438.5 L 704.5 434 Z " /><path fill="rgb(193,29,30)" stroke="rgb(193,29,30)" stroke-width="1" opacity="0.5294117647058824" d="M 419.5 438 L 421 438.5 L 410.5 442 L 410.5 441 L 419.5 438 Z " /><path fill="rgb(193,29,30)" stroke="rgb(193,29,30)" stroke-width="1" opacity="0.5294117647058824" d="M 484.5 440 L 486 441.5 L 486 528.5 L 485 528.5 L 485 441.5 L 484.5 440 Z " /><path fill="rgb(193,29,30)" stroke="rgb(193,29,30)" stroke-width="1" opacity="0.5294117647058824" d="M 706.5 440 L 707 443.5 L 706 443.5 L 706.5 440 Z " /><path fill="rgb(193,29,30)" stroke="rgb(193,29,30)" stroke-width="1" opacity="0.5294117647058824" d="M 481.5 441 L 483 441.5 L 469.5 447 L 469.5 446 L 481.5 441 Z " /><path fill="rgb(193,29,30)" stroke="rgb(193,29,30)" stroke-width="1" opacity="0.5294117647058824" d="M 526.5 443 L 527 454.5 L 526 454.5 L 526.5 443 Z " /><path fill="rgb(193,29,30)" stroke="rgb(193,29,30)" stroke-width="1" opacity="0.5294117647058824" d="M 615.5 443 L 616 444.5 L 614.5 447 L 614 445.5 L 615.5 443 Z " /><path fill="rgb(193,29,30)" stroke="rgb(193,29,30)" stroke-width="1" opacity="0.5294117647058824" d="M 397.5 445 L 400 445.5 L 397.5 446 L 397.5 445 Z " /><path fill="rgb(193,29,30)" stroke="rgb(193,29,30)" stroke-width="1" opacity="0.5294117647058824" d="M 393.5 446 L 396 446.5 L 393.5 447 L 393.5 446 Z " /><path fill="rgb(193,29,30)" stroke="rgb(193,29,30)" stroke-width="1" opacity="0.5294117647058824" d="M 707.5 446 L 708 448.5 L 707 448.5 L 707.5 446 Z " /><path fill="rgb(193,29,30)" stroke="rgb(193,29,30)" stroke-width="1" opacity="0.5294117647058824" d="M 387.5 447 L 392 447.5 L 387.5 448 L 387.5 447 Z " /><path fill="rgb(193,29,30)" stroke="rgb(193,29,30)" stroke-width="1" opacity="0.5294117647058824" d="M 466.5 447 L 468 447.5 L 442.5 459 L 442.5 458 L 466.5 447 Z " /><path fill="rgb(193,29,30)" stroke="rgb(193,29,30)" stroke-width="1" opacity="0.5294117647058824" d="M 316.5 448 L 317 450.5 L 316 450.5 L 316.5 448 Z " /><path fill="rgb(193,29,30)" stroke="rgb(193,29,30)" stroke-width="1" opacity="0.5294117647058824" d="M 706.5 450 L 707 451.5 L 701.5 458 L 700 457.5 L 705 453.5 L 706.5 450 Z " /><path fill="rgb(193,29,30)" stroke="rgb(193,29,30)" stroke-width="1" opacity="0.5294117647058824" d="M 317.5 452 L 326 468.5 L 351.5 495 L 382.5 521 L 399 537.5 Q 404.2 542.3 406 550.5 L 405 550.5 L 401 541.5 L 383.5 523 Q 353.3 500.2 328 472.5 L 322 464.5 L 317 454.5 L 317.5 452 Z " /><path fill="rgb(193,29,30)" stroke="rgb(193,29,30)" stroke-width="1" opacity="0.5294117647058824" d="M 610.5 454 L 610 455.5 L 605 465.5 L 586.5 492 L 587 490.5 L 610.5 454 Z " /><path fill="rgb(193,29,30)" stroke="rgb(193,29,30)" stroke-width="1" opacity="0.5294117647058824" d="M 688.5 458 L 699 458.5 L 688.5 459 L 688.5 458 Z " /><path fill="rgb(193,29,30)" stroke="rgb(193,29,30)" stroke-width="1" opacity="0.5294117647058824" d="M 439.5 459 L 441 459.5 L 435.5 462 L 435.5 461 L 439.5 459 Z " /><path fill="rgb(193,29,30)" stroke="rgb(193,29,30)" stroke-width="1" opacity="0.5294117647058824" d="M 525.5 459 L 526 471.5 L 525 471.5 L 525.5 459 Z " /><path fill="rgb(193,29,30)" stroke="rgb(193,29,30)" stroke-width="1" opacity="0.5294117647058824" d="M 682.5 459 L 687 459.5 L 682.5 460 L 682.5 459 Z " /><path fill="rgb(193,29,30)" stroke="rgb(193,29,30)" stroke-width="1" opacity="0.5294117647058824" d="M 678.5 460 L 681 460.5 L 678.5 461 L 678.5 460 Z " /><path fill="rgb(193,29,30)" stroke="rgb(193,29,30)" stroke-width="1" opacity="0.5294117647058824" d="M 674.5 461 L 677 461.5 Q 669 463 664 467.5 Q 646 496 624 520.5 L 613.5 537 L 613 535.5 L 665.5 465 L 674.5 461 Z " /><path fill="rgb(193,29,30)" stroke="rgb(193,29,30)" stroke-width="1" opacity="0.5294117647058824" d="M 432.5 462 L 434 462.5 Q 428.8 466.3 420.5 467 L 420.5 466 L 423.5 466 L 432.5 462 Z " /><path fill="rgb(193,29,30)" stroke="rgb(193,29,30)" stroke-width="1" opacity="0.5294117647058824" d="M 404.5 465 L 408.5 467 L 419 467.5 L 408.5 468 L 406.5 467 L 408 469.5 L 433 509.5 L 431 508.5 L 404.5 465 Z " /><path fill="rgb(193,29,30)" stroke="rgb(193,29,30)" stroke-width="1" opacity="0.5294117647058824" d="M 524.5 476 L 525 493.5 L 524 493.5 L 524.5 476 Z " /><path fill="rgb(193,29,30)" stroke="rgb(193,29,30)" stroke-width="1" opacity="0.5294117647058824" d="M 585.5 493 L 584 495.5 L 562.5 526 L 564 523.5 L 585.5 493 Z " /><path fill="rgb(193,29,30)" stroke="rgb(193,29,30)" stroke-width="1" opacity="0.5294117647058824" d="M 523.5 500 L 524 526 L 543 526.5 L 524.5 527 L 523 525.5 L 523.5 500 Z " /><path fill="rgb(193,29,30)" stroke="rgb(193,29,30)" stroke-width="1" opacity="0.5294117647058824" d="M 433.5 511 L 438 518.5 L 436 517.5 L 433.5 511 Z " /><path fill="rgb(193,29,30)" stroke="rgb(193,29,30)" stroke-width="1" opacity="0.5294117647058824" d="M 438.5 520 L 447.5 536 L 453 536.5 L 447.5 537 L 445 534.5 L 438.5 520 Z " /><path fill="rgb(193,29,30)" stroke="rgb(193,29,30)" stroke-width="1" opacity="0.5294117647058824" d="M 549.5 527 L 562 527.5 L 549.5 528 L 549.5 527 Z " /><path fill="rgb(193,29,30)" stroke="rgb(193,29,30)" stroke-width="1" opacity="0.5294117647058824" d="M 480.5 530 L 484 530.5 L 477.5 532 L 477.5 531 L 480.5 530 Z " /><path fill="rgb(193,29,30)" stroke="rgb(193,29,30)" stroke-width="1" opacity="0.5294117647058824" d="M 472.5 532 L 476 532.5 L 472.5 533 L 472.5 532 Z " /><path fill="rgb(193,29,30)" stroke="rgb(193,29,30)" stroke-width="1" opacity="0.5294117647058824" d="M 467.5 533 L 471 533.5 L 467.5 534 L 467.5 533 Z " /><path fill="rgb(193,29,30)" stroke="rgb(193,29,30)" stroke-width="1" opacity="0.5294117647058824" d="M 461.5 534 L 466 534.5 L 461.5 535 L 461.5 534 Z " /><path fill="rgb(193,29,30)" stroke="rgb(193,29,30)" stroke-width="1" opacity="0.5294117647058824" d="M 455.5 535 L 460 535.5 L 455.5 536 L 455.5 535 Z " /><path fill="rgb(193,29,30)" stroke="rgb(193,29,30)" stroke-width="1" opacity="0.5294117647058824" d="M 611.5 541 L 612 550.5 L 611 550.5 L 611.5 541 Z " /><path fill="rgb(193,29,30)" stroke="rgb(193,29,30)" stroke-width="1" opacity="0.5294117647058824" d="M 406.5 552 L 407 560.5 L 406 560.5 L 406.5 552 Z " /><path fill="rgb(193,29,30)" stroke="rgb(193,29,30)" stroke-width="1" opacity="0.5294117647058824" d="M 610.5 552 L 611 554.5 L 606.5 561 L 600.5 563 L 600.5 562 L 608 558.5 L 610.5 552 Z " /><path fill="rgb(193,29,30)" stroke="rgb(193,29,30)" stroke-width="1" opacity="0.5294117647058824" d="M 523.5 555 L 524 568.5 L 523 568.5 L 523.5 555 Z " /><path fill="rgb(193,29,30)" stroke="rgb(193,29,30)" stroke-width="1" opacity="0.5294117647058824" d="M 527.5 555 L 538 555.5 L 527.5 556 L 527.5 555 Z " /><path fill="rgb(193,29,30)" stroke="rgb(193,29,30)" stroke-width="1" opacity="0.5294117647058824" d="M 477.5 556 L 483 556.5 L 477.5 557 L 477.5 556 Z " /><path fill="rgb(193,29,30)" stroke="rgb(193,29,30)" stroke-width="1" opacity="0.5294117647058824" d="M 485.5 556 L 486 591.5 L 485 591.5 L 485.5 556 Z " /><path fill="rgb(193,29,30)" stroke="rgb(193,29,30)" stroke-width="1" opacity="0.5294117647058824" d="M 541.5 556 L 550 556.5 L 541.5 557 L 541.5 556 Z " /><path fill="rgb(193,29,30)" stroke="rgb(193,29,30)" stroke-width="1" opacity="0.5294117647058824" d="M 472.5 557 L 476 557.5 L 469.5 559 L 469.5 558 L 472.5 557 Z " /><path fill="rgb(193,29,30)" stroke="rgb(193,29,30)" stroke-width="1" opacity="0.5294117647058824" d="M 552.5 557 L 559 557.5 L 552.5 558 L 552.5 557 Z " /><path fill="rgb(193,29,30)" stroke="rgb(193,29,30)" stroke-width="1" opacity="0.5294117647058824" d="M 561.5 558 L 566 558.5 L 561.5 559 L 561.5 558 Z " /><path fill="rgb(193,29,30)" stroke="rgb(193,29,30)" stroke-width="1" opacity="0.5294117647058824" d="M 466.5 559 L 468 559.5 L 463.5 561 L 463.5 560 L 466.5 559 Z " /><path fill="rgb(193,29,30)" stroke="rgb(193,29,30)" stroke-width="1" opacity="0.5294117647058824" d="M 567.5 559 L 571 559.5 L 567.5 560 L 567.5 559 Z " /><path fill="rgb(193,29,30)" stroke="rgb(193,29,30)" stroke-width="1" opacity="0.5294117647058824" d="M 572.5 560 L 576 560.5 L 572.5 561 L 572.5 560 Z " /><path fill="rgb(193,29,30)" stroke="rgb(193,29,30)" stroke-width="1" opacity="0.5294117647058824" d="M 460.5 561 L 462 561.5 L 458.5 563 L 458.5 562 L 460.5 561 Z " /><path fill="rgb(193,29,30)" stroke="rgb(193,29,30)" stroke-width="1" opacity="0.5294117647058824" d="M 577.5 561 L 581 561.5 L 577.5 562 L 577.5 561 Z " /><path fill="rgb(193,29,30)" stroke="rgb(193,29,30)" stroke-width="1" opacity="0.5294117647058824" d="M 583.5 562 L 589 562.5 L 583.5 563 L 583.5 562 Z " /><path fill="rgb(193,29,30)" stroke="rgb(193,29,30)" stroke-width="1" opacity="0.5294117647058824" d="M 407.5 563 L 411.5 570 L 425 571.5 L 413.5 572 L 408 567.5 L 407.5 563 Z " /><path fill="rgb(193,29,30)" stroke="rgb(193,29,30)" stroke-width="1" opacity="0.5294117647058824" d="M 593.5 563 L 599 563.5 L 593.5 564 L 593.5 563 Z " /><path fill="rgb(193,29,30)" stroke="rgb(193,29,30)" stroke-width="1" opacity="0.5294117647058824" d="M 451.5 564 L 454 564.5 L 448.5 566 L 448.5 565 L 451.5 564 Z " /><path fill="rgb(193,29,30)" stroke="rgb(193,29,30)" stroke-width="1" opacity="0.5294117647058824" d="M 444.5 566 L 447 566.5 L 441.5 568 L 441.5 567 L 444.5 566 Z " /><path fill="rgb(193,29,30)" stroke="rgb(193,29,30)" stroke-width="1" opacity="0.5294117647058824" d="M 437.5 568 L 440 568.5 L 433.5 570 L 433.5 569 L 437.5 568 Z " /><path fill="rgb(193,29,30)" stroke="rgb(193,29,30)" stroke-width="1" opacity="0.5294117647058824" d="M 426.5 570 L 432 570.5 L 426.5 571 L 426.5 570 Z " /><path fill="rgb(193,29,30)" stroke="rgb(193,29,30)" stroke-width="1" opacity="0.5294117647058824" d="M 522.5 581 L 523 607.5 L 522 607.5 L 522.5 581 Z " /><path fill="rgb(193,29,30)" stroke="rgb(193,29,30)" stroke-width="1" opacity="0.5294117647058824" d="M 486.5 603 L 487 630.5 L 486 630.5 L 486.5 603 Z " /><path fill="rgb(193,29,30)" stroke="rgb(193,29,30)" stroke-width="1" opacity="0.5294117647058824" d="M 521.5 617 L 522 645.5 L 521 645.5 L 521.5 617 Z " /><path fill="rgb(193,29,30)" stroke="rgb(193,29,30)" stroke-width="1" opacity="0.5294117647058824" d="M 487.5 638 L 488 693.5 L 487 693.5 L 487.5 638 Z " /><path fill="rgb(193,29,30)" stroke="rgb(193,29,30)" stroke-width="1" opacity="0.5294117647058824" d="M 521.5 656 L 522 668.5 L 521 668.5 L 521.5 656 Z " /><path fill="rgb(193,29,30)" stroke="rgb(193,29,30)" stroke-width="1" opacity="0.5294117647058824" d="M 522.5 672 L 523 682.5 L 522 682.5 L 522.5 672 Z " /><path fill="rgb(193,29,30)" stroke="rgb(193,29,30)" stroke-width="1" opacity="0.5294117647058824" d="M 523.5 687 L 524 698.5 L 523 698.5 L 523.5 687 Z " /><path fill="rgb(193,29,30)" stroke="rgb(193,29,30)" stroke-width="1" opacity="0.5294117647058824" d="M 486.5 703 L 487 729.5 L 486 729.5 L 486.5 703 Z " /><path fill="rgb(193,29,30)" stroke="rgb(193,29,30)" stroke-width="1" opacity="0.5294117647058824" d="M 524.5 704 L 525 716.5 L 524 716.5 L 524.5 704 Z " /><path fill="rgb(193,29,30)" stroke="rgb(193,29,30)" stroke-width="1" opacity="0.5294117647058824" d="M 525.5 723 L 526 761.5 L 525 761.5 L 525.5 723 Z " /><path fill="rgb(193,29,30)" stroke="rgb(193,29,30)" stroke-width="1" opacity="0.5294117647058824" d="M 485.5 733 L 486 786.5 L 485 786.5 L 485.5 733 Z " /><path fill="rgb(193,29,30)" stroke="rgb(193,29,30)" stroke-width="1" opacity="0.5294117647058824" d="M 524.5 765 L 525 772.5 L 524 772.5 L 524.5 765 Z " /><path fill="rgb(193,29,30)" stroke="rgb(193,29,30)" stroke-width="1" opacity="0.5294117647058824" d="M 523.5 774 L 524 779.5 L 523 779.5 L 523.5 774 Z " /><path fill="rgb(193,29,30)" stroke="rgb(193,29,30)" stroke-width="1" opacity="0.5294117647058824" d="M 522.5 782 L 523 786.5 L 522 786.5 L 522.5 782 Z " /><path fill="rgb(193,29,30)" stroke="rgb(193,29,30)" stroke-width="1" opacity="0.5294117647058824" d="M 521.5 788 L 522 791.5 L 521 791.5 L 521.5 788 Z " /><path fill="rgb(193,29,30)" stroke="rgb(193,29,30)" stroke-width="1" opacity="0.5294117647058824" d="M 486.5 792 L 487 801.5 L 486 801.5 L 486.5 792 Z " /><path fill="rgb(193,29,30)" stroke="rgb(193,29,30)" stroke-width="1" opacity="0.5294117647058824" d="M 520.5 793 L 521 796.5 L 520 796.5 L 520.5 793 Z " /><path fill="rgb(193,29,30)" stroke="rgb(193,29,30)" stroke-width="1" opacity="0.5294117647058824" d="M 519.5 798 L 520 800.5 L 519 800.5 L 519.5 798 Z " /><path fill="rgb(193,29,30)" stroke="rgb(193,29,30)" stroke-width="1" opacity="0.5294117647058824" d="M 518.5 802 L 519 804.5 L 518 804.5 L 518.5 802 Z " /><path fill="rgb(193,29,30)" stroke="rgb(193,29,30)" stroke-width="1" opacity="0.5294117647058824" d="M 487.5 805 L 488 812.5 L 487 812.5 L 487.5 805 Z " /><path fill="rgb(193,29,30)" stroke="rgb(193,29,30)" stroke-width="1" opacity="0.5294117647058824" d="M 517.5 806 L 518 808.5 L 517 808.5 L 517.5 806 Z " /><path fill="rgb(193,29,30)" stroke="rgb(193,29,30)" stroke-width="1" opacity="0.5294117647058824" d="M 516.5 810 L 517 812.5 L 514.5 819 L 514 816.5 L 516.5 810 Z " /><path fill="rgb(193,29,30)" stroke="rgb(193,29,30)" stroke-width="1" opacity="0.5294117647058824" d="M 488.5 815 L 489 820.5 L 488 820.5 L 488.5 815 Z " /><path fill="rgb(193,29,30)" stroke="rgb(193,29,30)" stroke-width="1" opacity="0.5294117647058824" d="M 489.5 822 L 490 825.5 L 489 825.5 L 489.5 822 Z " /><path fill="rgb(193,29,30)" stroke="rgb(193,29,30)" stroke-width="1" opacity="0.5294117647058824" d="M 511.5 826 L 512 827.5 L 510.5 830 L 510 828.5 L 511.5 826 Z " /><path fill="rgb(193,29,30)" stroke="rgb(193,29,30)" stroke-width="1" opacity="0.5294117647058824" d="M 490.5 827 L 491 830.5 L 490 830.5 L 490.5 827 Z " /><path fill="rgb(193,29,30)" stroke="rgb(193,29,30)" stroke-width="1" opacity="0.5294117647058824" d="M 509.5 831 L 510 832.5 Q 506.4 842.4 499.5 849 Q 492.5 843.5 491 832.5 L 492 832.5 Q 493.3 842.7 499.5 848 Q 506.2 841.2 509.5 831 Z " /><path fill="rgb(193,29,30)" stroke="rgb(193,29,30)" stroke-width="1" opacity="0.996078431372549" d="M 488.5 228 L 487.5 230 L 488.5 228 Z " /><path fill="rgb(193,29,30)" stroke="rgb(193,29,30)" stroke-width="1" opacity="0.996078431372549" d="M 485.5 230 L 483.5 233 L 485.5 230 Z " /><path fill="rgb(193,29,30)" stroke="rgb(193,29,30)" stroke-width="1" opacity="0.996078431372549" d="M 501.5 230 L 502.5 232 L 501.5 230 Z " /><path fill="rgb(193,29,30)" stroke="rgb(193,29,30)" stroke-width="1" opacity="0.996078431372549" d="M 480.5 234 L 479.5 236 L 480.5 234 Z " /><path fill="rgb(193,29,30)" stroke="rgb(193,29,30)" stroke-width="1" opacity="0.996078431372549" d="M 510.5 236 L 511.5 238 L 510.5 236 Z " /><path fill="rgb(193,29,30)" stroke="rgb(193,29,30)" stroke-width="1" opacity="0.996078431372549" d="M 475.5 238 L 472.5 242 L 475.5 238 Z " /><path fill="rgb(193,29,30)" stroke="rgb(193,29,30)" stroke-width="1" opacity="0.996078431372549" d="M 514.5 239 L 517.5 243 L 514.5 239 Z " /><path fill="rgb(193,29,30)" stroke="rgb(193,29,30)" stroke-width="1" opacity="0.996078431372549" d="M 522.5 246 L 527.5 252 L 522.5 246 Z " /><path fill="rgb(193,29,30)" stroke="rgb(193,29,30)" stroke-width="1" opacity="0.996078431372549" d="M 465.5 247 L 460.5 253 L 465.5 247 Z " /><path fill="rgb(193,29,30)" stroke="rgb(193,29,30)" stroke-width="1" opacity="0.996078431372549" d="M 458.5 255 L 457.5 257 L 458.5 255 Z " /><path fill="rgb(193,29,30)" stroke="rgb(193,29,30)" stroke-width="1" opacity="0.996078431372549" d="M 532.5 257 L 534.5 260 L 532.5 257 Z " /><path fill="rgb(193,29,30)" stroke="rgb(193,29,30)" stroke-width="1" opacity="0.996078431372549" d="M 536.5 262 L 538.5 265 L 536.5 262 Z " /><path fill="rgb(193,29,30)" stroke="rgb(193,29,30)" stroke-width="1" opacity="0.996078431372549" d="M 540.5 267 L 541.5 269 L 540.5 267 Z " /><path fill="rgb(193,29,30)" stroke="rgb(193,29,30)" stroke-width="1" opacity="0.996078431372549" d="M 542.5 270 L 543.5 272 L 542.5 270 Z " /><path fill="rgb(193,29,30)" stroke="rgb(193,29,30)" stroke-width="1" opacity="0.996078431372549" d="M 548.5 279 L 549.5 281 L 548.5 279 Z " /><path fill="rgb(193,29,30)" stroke="rgb(193,29,30)" stroke-width="1" opacity="0.996078431372549" d="M 447.5 283 L 448 287.5 L 447 287.5 L 447.5 283 Z " /><path fill="rgb(193,29,30)" stroke="rgb(193,29,30)" stroke-width="1" opacity="0.996078431372549" d="M 465.5 309 L 466.5 311 L 465.5 309 Z " /><path fill="rgb(193,29,30)" stroke="rgb(193,29,30)" stroke-width="1" opacity="0.996078431372549" d="M 471.5 315 L 472.5 317 L 471.5 315 Z " /><path fill="rgb(193,29,30)" stroke="rgb(193,29,30)" stroke-width="1" opacity="0.996078431372549" d="M 553.5 327 L 549.5 332 L 553.5 327 Z " /><path fill="rgb(193,29,30)" stroke="rgb(193,29,30)" stroke-width="1" opacity="0.996078431372549" d="M 541.5 343 L 540.5 345 L 541.5 343 Z " /><path fill="rgb(193,29,30)" stroke="rgb(193,29,30)" stroke-width="1" opacity="0.996078431372549" d="M 483.5 358 L 484 360.5 L 483 360.5 L 483.5 358 Z " /><path fill="rgb(193,29,30)" stroke="rgb(193,29,30)" stroke-width="1" opacity="0.996078431372549" d="M 645.5 365 L 653.5 374 L 645.5 365 Z " /><path fill="rgb(193,29,30)" stroke="rgb(193,29,30)" stroke-width="1" opacity="0.996078431372549" d="M 484.5 371 L 485 373.5 L 484 373.5 L 484.5 371 Z " /><path fill="rgb(193,29,30)" stroke="rgb(193,29,30)" stroke-width="1" opacity="0.996078431372549" d="M 656.5 377 L 658.5 380 L 656.5 377 Z " /><path fill="rgb(193,29,30)" stroke="rgb(193,29,30)" stroke-width="1" opacity="0.996078431372549" d="M 661.5 383 L 669.5 392 L 661.5 383 Z " /><path fill="rgb(193,29,30)" stroke="rgb(193,29,30)" stroke-width="1" opacity="0.996078431372549" d="M 485.5 390 L 486 407.5 L 485 407.5 L 485.5 390 Z " /><path fill="rgb(193,29,30)" stroke="rgb(193,29,30)" stroke-width="1" opacity="0.996078431372549" d="M 676.5 399 L 682.5 406 L 676.5 399 Z " /><path fill="rgb(193,29,30)" stroke="rgb(193,29,30)" stroke-width="1" opacity="0.996078431372549" d="M 332.5 408 L 333.5 410 L 332.5 408 Z " /><path fill="rgb(193,29,30)" stroke="rgb(193,29,30)" stroke-width="1" opacity="0.996078431372549" d="M 336.5 411 L 337.5 413 L 336.5 411 Z " /><path fill="rgb(193,29,30)" stroke="rgb(193,29,30)" stroke-width="1" opacity="0.996078431372549" d="M 485.5 411 L 483.5 414 L 485.5 411 Z " /><path fill="rgb(193,29,30)" stroke="rgb(193,29,30)" stroke-width="1" opacity="0.996078431372549" d="M 687.5 411 L 692.5 417 L 687.5 411 Z " /><path fill="rgb(193,29,30)" stroke="rgb(193,29,30)" stroke-width="1" opacity="0.996078431372549" d="M 617.5 412 L 618.5 414 L 617.5 412 Z " /><path fill="rgb(193,29,30)" stroke="rgb(193,29,30)" stroke-width="1" opacity="0.996078431372549" d="M 341.5 415 L 344.5 419 L 341.5 415 Z " /><path fill="rgb(193,29,30)" stroke="rgb(193,29,30)" stroke-width="1" opacity="0.996078431372549" d="M 347.5 420 L 350.5 424 L 347.5 420 Z " /><path fill="rgb(193,29,30)" stroke="rgb(193,29,30)" stroke-width="1" opacity="0.996078431372549" d="M 695.5 420 L 696.5 422 L 695.5 420 Z " /><path fill="rgb(193,29,30)" stroke="rgb(193,29,30)" stroke-width="1" opacity="0.996078431372549" d="M 354.5 426 L 358.5 431 L 354.5 426 Z " /><path fill="rgb(193,29,30)" stroke="rgb(193,29,30)" stroke-width="1" opacity="0.996078431372549" d="M 527.5 427 L 528 429.5 L 527 429.5 L 527.5 427 Z " /><path fill="rgb(193,29,30)" stroke="rgb(193,29,30)" stroke-width="1" opacity="0.996078431372549" d="M 316.5 431 L 317 433.5 L 316 433.5 L 316.5 431 Z " /><path fill="rgb(193,29,30)" stroke="rgb(193,29,30)" stroke-width="1" opacity="0.996078431372549" d="M 362.5 433 L 364.5 436 L 362.5 433 Z " /><path fill="rgb(193,29,30)" stroke="rgb(193,29,30)" stroke-width="1" opacity="0.996078431372549" d="M 367.5 437 L 368.5 439 L 367.5 437 Z " /><path fill="rgb(193,29,30)" stroke="rgb(193,29,30)" stroke-width="1" opacity="0.996078431372549" d="M 371.5 440 L 372.5 442 L 371.5 440 Z " /><path fill="rgb(193,29,30)" stroke="rgb(193,29,30)" stroke-width="1" opacity="0.996078431372549" d="M 526.5 440 L 527 442.5 L 526 442.5 L 526.5 440 Z " /><path fill="rgb(193,29,30)" stroke="rgb(193,29,30)" stroke-width="1" opacity="0.996078431372549" d="M 706.5 444 L 707 446.5 L 706 446.5 L 706.5 444 Z " /><path fill="rgb(193,29,30)" stroke="rgb(193,29,30)" stroke-width="1" opacity="0.996078431372549" d="M 704.5 453 L 701.5 457 L 704.5 453 Z " /><path fill="rgb(193,29,30)" stroke="rgb(193,29,30)" stroke-width="1" opacity="0.996078431372549" d="M 525.5 454 L 526 458.5 L 525 458.5 L 525.5 454 Z " /><path fill="rgb(193,29,30)" stroke="rgb(193,29,30)" stroke-width="1" opacity="0.996078431372549" d="M 607.5 461 L 606.5 463 L 607.5 461 Z " /><path fill="rgb(193,29,30)" stroke="rgb(193,29,30)" stroke-width="1" opacity="0.996078431372549" d="M 405.5 465 L 404.5 467 L 405.5 465 Z " /><path fill="rgb(193,29,30)" stroke="rgb(193,29,30)" stroke-width="1" opacity="0.996078431372549" d="M 664.5 465 L 663.5 467 L 664.5 465 Z " /><path fill="rgb(193,29,30)" stroke="rgb(193,29,30)" stroke-width="1" opacity="0.996078431372549" d="M 604.5 466 L 603.5 468 L 604.5 466 Z " /><path fill="rgb(193,29,30)" stroke="rgb(193,29,30)" stroke-width="1" opacity="0.996078431372549" d="M 326.5 468 L 327.5 470 L 326.5 468 Z " /><path fill="rgb(193,29,30)" stroke="rgb(193,29,30)" stroke-width="1" opacity="0.996078431372549" d="M 405.5 468 L 406.5 470 L 405.5 468 Z " /><path fill="rgb(193,29,30)" stroke="rgb(193,29,30)" stroke-width="1" opacity="0.996078431372549" d="M 662.5 468 L 661.5 470 L 662.5 468 Z " /><path fill="rgb(193,29,30)" stroke="rgb(193,29,30)" stroke-width="1" opacity="0.996078431372549" d="M 602.5 469 L 601.5 471 L 602.5 469 Z " /><path fill="rgb(193,29,30)" stroke="rgb(193,29,30)" stroke-width="1" opacity="0.996078431372549" d="M 407.5 471 L 408.5 473 L 407.5 471 Z " /><path fill="rgb(193,29,30)" stroke="rgb(193,29,30)" stroke-width="1" opacity="0.996078431372549" d="M 524.5 471 L 525 475.5 L 524 475.5 L 524.5 471 Z " /><path fill="rgb(193,29,30)" stroke="rgb(193,29,30)" stroke-width="1" opacity="0.996078431372549" d="M 600.5 472 L 599.5 474 L 600.5 472 Z " /><path fill="rgb(193,29,30)" stroke="rgb(193,29,30)" stroke-width="1" opacity="0.996078431372549" d="M 330.5 473 L 351.5 495 L 330.5 473 Z " /><path fill="rgb(193,29,30)" stroke="rgb(193,29,30)" stroke-width="1" opacity="0.996078431372549" d="M 409.5 474 L 410.5 476 L 409.5 474 Z " /><path fill="rgb(193,29,30)" stroke="rgb(193,29,30)" stroke-width="1" opacity="0.996078431372549" d="M 598.5 475 L 597.5 477 L 598.5 475 Z " /><path fill="rgb(193,29,30)" stroke="rgb(193,29,30)" stroke-width="1" opacity="0.996078431372549" d="M 411.5 477 L 412.5 479 L 411.5 477 Z " /><path fill="rgb(193,29,30)" stroke="rgb(193,29,30)" stroke-width="1" opacity="0.996078431372549" d="M 596.5 478 L 595.5 480 L 596.5 478 Z " /><path fill="rgb(193,29,30)" stroke="rgb(193,29,30)" stroke-width="1" opacity="0.996078431372549" d="M 655.5 478 L 654.5 480 L 655.5 478 Z " /><path fill="rgb(193,29,30)" stroke="rgb(193,29,30)" stroke-width="1" opacity="0.996078431372549" d="M 413.5 480 L 414.5 482 L 413.5 480 Z " /><path fill="rgb(193,29,30)" stroke="rgb(193,29,30)" stroke-width="1" opacity="0.996078431372549" d="M 594.5 481 L 593.5 483 L 594.5 481 Z " /><path fill="rgb(193,29,30)" stroke="rgb(193,29,30)" stroke-width="1" opacity="0.996078431372549" d="M 415.5 483 L 416.5 485 L 415.5 483 Z " /><path fill="rgb(193,29,30)" stroke="rgb(193,29,30)" stroke-width="1" opacity="0.996078431372549" d="M 650.5 485 L 649.5 487 L 650.5 485 Z " /><path fill="rgb(193,29,30)" stroke="rgb(193,29,30)" stroke-width="1" opacity="0.996078431372549" d="M 417.5 486 L 418.5 488 L 417.5 486 Z " /><path fill="rgb(193,29,30)" stroke="rgb(193,29,30)" stroke-width="1" opacity="0.996078431372549" d="M 647.5 489 L 646.5 491 L 647.5 489 Z " /><path fill="rgb(193,29,30)" stroke="rgb(193,29,30)" stroke-width="1" opacity="0.996078431372549" d="M 587.5 491 L 586.5 493 L 587.5 491 Z " /><path fill="rgb(193,29,30)" stroke="rgb(193,29,30)" stroke-width="1" opacity="0.996078431372549" d="M 644.5 493 L 642.5 496 L 644.5 493 Z " /><path fill="rgb(193,29,30)" stroke="rgb(193,29,30)" stroke-width="1" opacity="0.996078431372549" d="M 422.5 494 L 423.5 496 L 422.5 494 Z " /><path fill="rgb(193,29,30)" stroke="rgb(193,29,30)" stroke-width="1" opacity="0.996078431372549" d="M 523.5 494 L 524 499.5 L 523 499.5 L 523.5 494 Z " /><path fill="rgb(193,29,30)" stroke="rgb(193,29,30)" stroke-width="1" opacity="0.996078431372549" d="M 585.5 494 L 584.5 496 L 585.5 494 Z " /><path fill="rgb(193,29,30)" stroke="rgb(193,29,30)" stroke-width="1" opacity="0.996078431372549" d="M 583.5 497 L 582.5 499 L 583.5 497 Z " /><path fill="rgb(193,29,30)" stroke="rgb(193,29,30)" stroke-width="1" opacity="0.996078431372549" d="M 640.5 498 L 639.5 500 L 640.5 498 Z " /><path fill="rgb(193,29,30)" stroke="rgb(193,29,30)" stroke-width="1" opacity="0.996078431372549" d="M 357.5 499 L 360.5 503 L 357.5 499 Z " /><path fill="rgb(193,29,30)" stroke="rgb(193,29,30)" stroke-width="1" opacity="0.996078431372549" d="M 637.5 502 L 636.5 504 L 637.5 502 Z " /><path fill="rgb(193,29,30)" stroke="rgb(193,29,30)" stroke-width="1" opacity="0.996078431372549" d="M 578.5 504 L 577.5 506 L 578.5 504 Z " /><path fill="rgb(193,29,30)" stroke="rgb(193,29,30)" stroke-width="1" opacity="0.996078431372549" d="M 364.5 505 L 367.5 509 L 364.5 505 Z " /><path fill="rgb(193,29,30)" stroke="rgb(193,29,30)" stroke-width="1" opacity="0.996078431372549" d="M 634.5 506 L 632.5 509 L 634.5 506 Z " /><path fill="rgb(193,29,30)" stroke="rgb(193,29,30)" stroke-width="1" opacity="0.996078431372549" d="M 576.5 507 L 575.5 509 L 576.5 507 Z " /><path fill="rgb(193,29,30)" stroke="rgb(193,29,30)" stroke-width="1" opacity="0.996078431372549" d="M 431.5 509 L 432.5 511 L 431.5 509 Z " /><path fill="rgb(193,29,30)" stroke="rgb(193,29,30)" stroke-width="1" opacity="0.996078431372549" d="M 371.5 511 L 373.5 514 L 371.5 511 Z " /><path fill="rgb(193,29,30)" stroke="rgb(193,29,30)" stroke-width="1" opacity="0.996078431372549" d="M 573.5 511 L 572.5 513 L 573.5 511 Z " /><path fill="rgb(193,29,30)" stroke="rgb(193,29,30)" stroke-width="1" opacity="0.996078431372549" d="M 630.5 511 L 628.5 514 L 630.5 511 Z " /><path fill="rgb(193,29,30)" stroke="rgb(193,29,30)" stroke-width="1" opacity="0.996078431372549" d="M 571.5 514 L 570.5 516 L 571.5 514 Z " /><path fill="rgb(193,29,30)" stroke="rgb(193,29,30)" stroke-width="1" opacity="0.996078431372549" d="M 377.5 516 L 381.5 521 L 377.5 516 Z " /><path fill="rgb(193,29,30)" stroke="rgb(193,29,30)" stroke-width="1" opacity="0.996078431372549" d="M 625.5 517 L 624.5 519 L 625.5 517 Z " /><path fill="rgb(193,29,30)" stroke="rgb(193,29,30)" stroke-width="1" opacity="0.996078431372549" d="M 568.5 518 L 567.5 520 L 568.5 518 Z " /><path fill="rgb(193,29,30)" stroke="rgb(193,29,30)" stroke-width="1" opacity="0.996078431372549" d="M 566.5 521 L 565.5 523 L 566.5 521 Z " /><path fill="rgb(193,29,30)" stroke="rgb(193,29,30)" stroke-width="1" opacity="0.996078431372549" d="M 622.5 521 L 621.5 523 L 622.5 521 Z " /><path fill="rgb(193,29,30)" stroke="rgb(193,29,30)" stroke-width="1" opacity="0.996078431372549" d="M 387.5 525 L 395.5 534 L 387.5 525 Z " /><path fill="rgb(193,29,30)" stroke="rgb(193,29,30)" stroke-width="1" opacity="0.996078431372549" d="M 563.5 525 L 562.5 527 L 563.5 525 Z " /><path fill="rgb(193,29,30)" stroke="rgb(193,29,30)" stroke-width="1" opacity="0.996078431372549" d="M 619.5 525 L 618.5 527 L 619.5 525 Z " /><path fill="rgb(193,29,30)" stroke="rgb(193,29,30)" stroke-width="1" opacity="0.996078431372549" d="M 543.5 527 L 549 527.5 L 543.5 528 L 543.5 527 Z " /><path fill="rgb(193,29,30)" stroke="rgb(193,29,30)" stroke-width="1" opacity="0.996078431372549" d="M 617.5 528 L 616.5 530 L 617.5 528 Z " /><path fill="rgb(193,29,30)" stroke="rgb(193,29,30)" stroke-width="1" opacity="0.996078431372549" d="M 485.5 529 L 484.5 531 L 485.5 529 Z " /><path fill="rgb(193,29,30)" stroke="rgb(193,29,30)" stroke-width="1" opacity="0.996078431372549" d="M 399.5 538 L 400.5 540 L 399.5 538 Z " /><path fill="rgb(193,29,30)" stroke="rgb(193,29,30)" stroke-width="1" opacity="0.996078431372549" d="M 523.5 554 L 527 554.5 L 523.5 555 L 523.5 554 Z " /><path fill="rgb(193,29,30)" stroke="rgb(193,29,30)" stroke-width="1" opacity="0.996078431372549" d="M 538.5 555 L 541 555.5 L 538.5 556 L 538.5 555 Z " /><path fill="rgb(193,29,30)" stroke="rgb(193,29,30)" stroke-width="1" opacity="0.996078431372549" d="M 607.5 558 L 606.5 560 L 607.5 558 Z " /><path fill="rgb(193,29,30)" stroke="rgb(193,29,30)" stroke-width="1" opacity="0.996078431372549" d="M 589.5 562 L 592 562.5 L 589.5 563 L 589.5 562 Z " /><path fill="rgb(193,29,30)" stroke="rgb(193,29,30)" stroke-width="1" opacity="0.996078431372549" d="M 522.5 570 L 523 580.5 L 522 580.5 L 522.5 570 Z " /><path fill="rgb(193,29,30)" stroke="rgb(193,29,30)" stroke-width="1" opacity="0.996078431372549" d="M 486.5 593 L 487 602.5 L 486 602.5 L 486.5 593 Z " /><path fill="rgb(193,29,30)" stroke="rgb(193,29,30)" stroke-width="1" opacity="0.996078431372549" d="M 521.5 608 L 522 616.5 L 521 616.5 L 521.5 608 Z " /><path fill="rgb(193,29,30)" stroke="rgb(193,29,30)" stroke-width="1" opacity="0.996078431372549" d="M 487.5 631 L 488 637.5 L 487 637.5 L 487.5 631 Z " /><path fill="rgb(193,29,30)" stroke="rgb(193,29,30)" stroke-width="1" opacity="0.996078431372549" d="M 520.5 646 L 521 654.5 L 520 654.5 L 520.5 646 Z " /><path fill="rgb(193,29,30)" stroke="rgb(193,29,30)" stroke-width="1" opacity="0.996078431372549" d="M 521.5 669 L 522 672.5 L 521 672.5 L 521.5 669 Z " /><path fill="rgb(193,29,30)" stroke="rgb(193,29,30)" stroke-width="1" opacity="0.996078431372549" d="M 522.5 683 L 523 686.5 L 522 686.5 L 522.5 683 Z " /><path fill="rgb(193,29,30)" stroke="rgb(193,29,30)" stroke-width="1" opacity="0.996078431372549" d="M 487.5 694 L 488 702.5 L 487 702.5 L 487.5 694 Z " /><path fill="rgb(193,29,30)" stroke="rgb(193,29,30)" stroke-width="1" opacity="0.996078431372549" d="M 523.5 699 L 524 703.5 L 523 703.5 L 523.5 699 Z " /><path fill="rgb(193,29,30)" stroke="rgb(193,29,30)" stroke-width="1" opacity="0.996078431372549" d="M 524.5 717 L 525 721.5 L 524 721.5 L 524.5 717 Z " /><path fill="rgb(193,29,30)" stroke="rgb(193,29,30)" stroke-width="1" opacity="0.996078431372549" d="M 486.5 730 L 487 732.5 L 486 732.5 L 486.5 730 Z " /><path fill="rgb(193,29,30)" stroke="rgb(193,29,30)" stroke-width="1" opacity="0.996078431372549" d="M 524.5 761 L 525 764.5 L 524 764.5 L 524.5 761 Z " /><path fill="rgb(193,29,30)" stroke="rgb(193,29,30)" stroke-width="1" opacity="0.996078431372549" d="M 486.5 788 L 487 791.5 L 486 791.5 L 486.5 788 Z " /><path fill="rgb(193,29,30)" stroke="rgb(193,29,30)" stroke-width="1" opacity="0.996078431372549" d="M 487.5 802 L 488 804.5 L 487 804.5 L 487.5 802 Z " /><path fill="rgb(193,29,30)" stroke="rgb(193,29,30)" stroke-width="1" opacity="0.996078431372549" d="M 497.5 845 L 499.5 847 L 502 845.5 Q 498.8 850.8 497.5 845 Z " /><path fill="rgb(193,29,30)" stroke="rgb(193,29,30)" stroke-width="1" opacity="1" d="M 492.5 226 Q 516.2 237.3 532 256.5 Q 546 272.5 556 292.5 L 561 307.5 L 561 315.5 Q 559.5 323 554.5 327 L 549 331.5 Q 538 344 533 362.5 L 528 390.5 L 528 399 L 606.5 369 L 621.5 364 L 631.5 362 L 638.5 362 Q 649.9 366.6 656 376.5 L 698 423.5 L 704 434.5 L 707 447.5 Q 705.5 454 700.5 457 L 676.5 460 L 663 466.5 L 652 483.5 L 616 529.5 L 611 540.5 L 611 549.5 L 609 556.5 L 604.5 561 L 598.5 563 L 592.5 563 L 560.5 557 L 541.5 556 L 540.5 555 L 527.5 555 L 523 554 L 523 569.5 L 522 570.5 L 522 607.5 L 521 608.5 L 521 645.5 L 520 646.5 L 520 654.5 L 521 655.5 L 521 672.5 L 522 673.5 L 524 721.5 L 525 722.5 L 525 760.5 L 524 761.5 L 523 779.5 L 517 808.5 L 510 829.5 L 503 843.5 L 499.5 847 L 493 836.5 L 488 812.5 L 487 788.5 L 486 787.5 L 486 733.5 L 487 732.5 L 487 703.5 L 488 702.5 L 488 631.5 L 487 630.5 L 486 555 L 483.5 556 L 471.5 557 L 456.5 563 L 435.5 569 L 424.5 570 L 423.5 571 L 414.5 571 L 410 569 L 407 560.5 Q 408.4 550.6 405 545.5 L 387.5 525 Q 355.3 500.3 328 470.5 L 318 453.5 L 316 445.5 L 316 434.5 L 317 433.5 L 317 425.5 L 319 416.5 L 325.5 404 L 338.5 413 L 372.5 442 L 385.5 448 L 392.5 448 L 444.5 431 L 469.5 421 L 486 411.5 L 485 371.5 L 484 370.5 L 484 358.5 L 483 357.5 L 482 340.5 L 480 331.5 L 475 319.5 L 465.5 309 Q 460.2 304.7 452 304 L 452 300.5 L 448 290.5 L 448 278.5 L 454 261.5 L 471.5 242 L 492.5 226 Z M 603 407 L 602 408 L 593 408 L 577 411 L 543 420 L 528 425 L 527 428 L 526 454 L 525 455 L 525 471 L 524 472 L 523 527 L 562 528 L 608 462 L 618 441 L 622 425 Q 623 417 619 414 L 613 409 L 603 407 Z M 484 440 L 434 462 L 419 467 Q 409 468 404 465 L 405 469 L 429 505 L 446 537 L 468 535 L 485 531 L 486 530 L 486 441 L 484 440 Z " /></svg>